<?xml version="1.0" standalone="no"?>
<!DOCTYPE svg PUBLIC "-//W3C//DTD SVG 20010904//EN"
 "http://www.w3.org/TR/2001/REC-SVG-20010904/DTD/svg10.dtd">
<svg version="1.0" xmlns="http://www.w3.org/2000/svg"
 width="102.000000pt" height="108.000000pt" viewBox="0 0 102.000000 108.000000"
 preserveAspectRatio="xMidYMid meet">
<metadata>
Created by potrace 1.16, written by Peter Selinger 2001-2019
</metadata>
<g transform="translate(0.000000,108.000000) scale(0.100000,-0.100000)"
 stroke="none">
<path d="M409 969 c-68 -16 -144 -51 -206 -95 -34 -24 -64 -40 -68 -34 -3 5
11 28 32 51 20 22 38 48 39 56 2 8 -1 12 -4 8 -4 -4 -7 -10 -7 -13 0 -4 -22
-29 -48 -57 -93 -96 -147 -228 -147 -360 1 -129 54 -257 148 -349 33 -32 67
-63 76 -68 9 -5 -6 13 -34 41 -71 71 -65 93 9 36 121 -92 242 -125 380 -104
42 6 92 18 111 25 45 19 133 75 143 91 11 18 27 16 27 -2 0 -16 -16 -35 -70
-78 l-35 -29 34 19 c46 25 130 118 165 182 39 73 56 142 56 236 0 144 -43 256
-135 350 -27 28 -41 40 -29 26 32 -40 56 -82 50 -88 -2 -3 -33 18 -68 46 -71
58 -124 85 -205 106 -62 16 -156 18 -214 4z m308 -165 c23 -14 54 -40 68 -59
27 -34 55 -119 55 -165 0 -25 0 -24 -19 6 -29 48 -69 74 -111 74 -44 0 -61
-17 -58 -56 2 -31 -17 -74 -32 -74 -4 0 -14 16 -20 35 -7 20 -24 42 -41 52
-20 12 -29 25 -29 44 0 36 -23 53 -60 45 -34 -6 -35 -5 -16 32 49 95 162 123
263 66z m-416 -30 c-30 -55 -28 -118 4 -150 20 -20 29 -23 44 -14 11 5 23 15
26 20 7 11 75 14 75 4 0 -3 -11 -19 -25 -36 -16 -19 -25 -42 -25 -64 0 -27 -5
-36 -24 -43 -32 -13 -39 -37 -21 -72 l16 -29 -32 0 c-73 0 -148 67 -169 152
-10 38 -9 56 5 104 14 47 28 69 77 117 33 32 62 56 65 54 2 -3 -5 -22 -16 -43z
m419 -380 c0 -64 -8 -71 -101 -73 -61 -2 -67 0 -83 24 -9 14 -23 25 -31 25
-16 0 -55 35 -55 49 0 5 18 7 40 4 27 -4 47 0 65 11 23 15 27 15 49 1 31 -21
63 -6 72 32 l7 26 19 -22 c12 -16 18 -40 18 -77z"/>
</g>
</svg>
