<?xml version="1.0" standalone="no"?>
<!DOCTYPE svg PUBLIC "-//W3C//DTD SVG 20010904//EN"
 "http://www.w3.org/TR/2001/REC-SVG-20010904/DTD/svg10.dtd">
<svg version="1.0" xmlns="http://www.w3.org/2000/svg"
 width="102.000000pt" height="108.000000pt" viewBox="0 0 102.000000 108.000000"
 preserveAspectRatio="xMidYMid meet">
<metadata>
Created by potrace 1.16, written by Peter Selinger 2001-2019
</metadata>
<g transform="translate(0.000000,108.000000) scale(0.100000,-0.100000)"
 stroke="none">
<path d="M410 965 c-80 -20 -148 -51 -198 -92 -55 -45 -74 -32 -30 22 31 37
46 71 27 59 -5 -3 -7 -9 -5 -12 2 -4 -20 -32 -50 -62 -192 -192 -189 -518 6
-709 50 -50 161 -121 186 -121 5 0 -20 16 -56 35 -79 42 -180 145 -141 145 4
0 24 -14 42 -30 166 -149 426 -166 601 -40 62 44 68 46 68 26 0 -8 -21 -33
-47 -57 -27 -23 -37 -36 -23 -29 59 31 138 122 182 207 l43 86 0 136 0 136
-38 77 c-22 43 -61 100 -90 131 -29 29 -40 40 -26 23 75 -87 59 -117 -21 -42
-112 104 -279 148 -430 111z m100 -227 c19 -34 63 -91 98 -127 52 -55 62 -71
60 -96 -2 -23 -9 -31 -26 -33 -22 -3 -37 7 -171 122 -35 30 -16 1 51 -77 42
-49 58 -75 58 -97 0 -48 -41 -41 -98 17 -45 44 -185 143 -203 143 -5 0 -9 47
-9 105 l0 105 103 0 102 0 35 -62z m254 -190 c3 -7 7 -35 10 -61 l6 -48 -53
-25 c-28 -14 -60 -30 -70 -37 -22 -15 -37 4 -37 46 0 25 3 27 40 27 l40 0 0
49 c0 30 5 51 13 54 23 10 48 7 51 -5z"/>
</g>
</svg>
