<?xml version="1.0" standalone="no"?>
<!DOCTYPE svg PUBLIC "-//W3C//DTD SVG 20010904//EN"
 "http://www.w3.org/TR/2001/REC-SVG-20010904/DTD/svg10.dtd">
<svg version="1.0" xmlns="http://www.w3.org/2000/svg"
 width="102.000000pt" height="108.000000pt" viewBox="0 0 102.000000 108.000000"
 preserveAspectRatio="xMidYMid meet">
<metadata>
Created by potrace 1.16, written by Peter Selinger 2001-2019
</metadata>
<g transform="translate(0.000000,108.000000) scale(0.100000,-0.100000)"
 stroke="none">
<path d="M395 973 c-48 -12 -125 -50 -182 -90 -77 -54 -94 -40 -29 26 26 26
43 50 40 54 -11 11 -26 8 -22 -3 2 -6 -22 -36 -52 -68 -34 -35 -71 -88 -95
-137 l-40 -80 0 -130 c0 -104 4 -140 19 -180 45 -118 150 -232 261 -285 35
-17 67 -30 71 -30 5 1 -22 16 -61 35 -70 35 -134 86 -155 125 -17 32 4 25 60
-19 66 -52 123 -79 211 -97 132 -27 291 11 399 96 23 18 41 26 45 20 11 -17
-77 -91 -150 -127 -38 -18 -59 -31 -45 -27 54 14 145 71 199 124 187 185 201
473 32 687 -22 28 -55 61 -73 74 -26 18 -23 12 20 -34 45 -48 66 -87 46 -87
-3 0 -29 20 -57 44 -60 50 -137 91 -197 105 -52 12 -45 4 21 -23 33 -13 62
-34 78 -56 16 -22 19 -29 8 -21 -12 10 -21 11 -25 4 -4 -5 -36 -17 -71 -26
-35 -9 -66 -19 -69 -22 -7 -6 -21 -91 -21 -131 -1 -21 11 -51 33 -83 l35 -51
-37 0 c-20 0 -53 -3 -73 -6 l-36 -6 -7 70 -7 70 -40 4 c-22 2 -42 2 -45 -1 -2
-2 -4 -19 -4 -38 0 -25 4 -33 18 -33 10 0 24 6 30 12 17 17 34 -8 27 -37 -2
-11 -5 -28 -5 -37 0 -14 -9 -18 -42 -18 -24 0 -59 -4 -79 -9 l-36 -8 -7 116
c-3 64 -9 130 -12 148 l-6 32 72 -6 c58 -5 72 -3 68 7 -2 7 -17 15 -34 17 -16
2 -38 14 -48 26 -13 15 -20 18 -23 10 -8 -22 -32 -15 -26 8 7 25 66 64 122 79
57 15 54 27 -4 13z m236 -443 c10 -6 19 -17 19 -25 0 -8 32 -48 70 -89 54 -57
70 -80 70 -103 0 -27 -2 -29 -32 -25 -24 4 -58 32 -145 119 -62 63 -113 116
-113 118 0 15 105 19 131 5z"/>
</g>
</svg>
