<?xml version="1.0" standalone="no"?>
<!DOCTYPE svg PUBLIC "-//W3C//DTD SVG 20010904//EN"
 "http://www.w3.org/TR/2001/REC-SVG-20010904/DTD/svg10.dtd">
<svg version="1.0" xmlns="http://www.w3.org/2000/svg"
 width="102.000000pt" height="108.000000pt" viewBox="0 0 102.000000 108.000000"
 preserveAspectRatio="xMidYMid meet">
<metadata>
Created by potrace 1.16, written by Peter Selinger 2001-2019
</metadata>
<g transform="translate(0.000000,108.000000) scale(0.100000,-0.100000)"
 stroke="none">
<path d="M248 964 c-6 -5 -29 -11 -53 -13 -5 -1 -4 -5 3 -9 9 -6 4 -14 -17
-30 -42 -31 -114 -136 -142 -207 -32 -84 -33 -262 -1 -348 39 -105 143 -229
222 -266 21 -10 22 -10 6 1 -45 30 -97 82 -92 94 2 6 -4 14 -15 17 -10 3 -19
12 -19 21 0 13 4 15 18 7 10 -5 25 -18 33 -27 25 -31 132 -94 184 -109 28 -8
91 -16 141 -16 114 -2 199 24 284 87 33 24 60 39 60 34 0 -6 -6 -10 -12 -10
-10 0 -10 -2 -1 -8 17 -10 -34 -61 -97 -96 -25 -14 -40 -26 -34 -26 22 0 130
78 177 129 27 28 65 86 85 129 l37 77 0 135 0 135 -42 85 c-30 61 -59 101
-100 140 -47 45 -50 47 -17 10 79 -86 69 -123 -14 -51 -55 47 -126 91 -147 91
-5 0 8 -12 30 -26 59 -40 82 -63 105 -106 20 -38 14 -52 -10 -23 -17 20 -30
19 -57 -7 l-23 -21 35 -24 c18 -12 45 -23 59 -23 15 0 26 -3 26 -7 0 -18 -66
-143 -76 -143 -6 0 -19 18 -29 40 -10 22 -23 40 -29 40 -10 -1 -95 -108 -105
-132 -2 -5 12 -32 30 -59 32 -46 37 -49 76 -49 23 0 45 -5 48 -10 9 -14 -44
-109 -64 -114 -9 -3 -36 -8 -60 -11 l-44 -7 7 49 c6 46 4 53 -30 97 -31 41
-40 47 -63 42 -14 -3 -37 -8 -51 -11 l-25 -6 25 12 c14 7 27 12 30 12 3 -1 10
4 16 11 17 18 -5 43 -52 59 -39 13 -41 17 -29 48 4 11 -1 18 -16 22 -16 4 -19
3 -11 -5 8 -8 2 -24 -23 -58 -28 -39 -33 -52 -26 -75 5 -20 16 -31 32 -35 20
-5 21 -7 7 -13 -26 -9 -22 -32 13 -71 l30 -35 -33 -5 c-18 -3 -53 -8 -78 -11
l-45 -6 3 43 c2 26 -6 72 -20 118 l-24 75 27 51 c14 28 29 58 31 65 4 12 9 12
34 -1 49 -24 50 -23 12 10 -32 27 -36 35 -31 63 4 27 0 37 -26 60 -17 15 -31
24 -31 20 0 -5 -5 -1 -10 7 -8 12 -13 11 -38 -7 l-30 -22 6 22 c6 25 13 34 67
89 22 22 58 49 80 59 22 11 29 16 15 13 -34 -8 -106 -50 -157 -92 l-43 -34 0
25 c0 18 16 40 56 76 30 28 54 51 51 51 -2 0 -6 -3 -9 -6z"/>
</g>
</svg>
