<?xml version="1.0" standalone="no"?>
<!DOCTYPE svg PUBLIC "-//W3C//DTD SVG 20010904//EN"
 "http://www.w3.org/TR/2001/REC-SVG-20010904/DTD/svg10.dtd">
<svg version="1.0" xmlns="http://www.w3.org/2000/svg"
 width="102.000000pt" height="108.000000pt" viewBox="0 0 102.000000 108.000000"
 preserveAspectRatio="xMidYMid meet">
<metadata>
Created by potrace 1.16, written by Peter Selinger 2001-2019
</metadata>
<g transform="translate(0.000000,108.000000) scale(0.100000,-0.100000)"
 stroke="none">
<path d="M200 955 c-8 -10 -9 -15 -1 -15 6 0 -9 -18 -34 -41 -147 -136 -196
-354 -125 -556 21 -60 79 -144 138 -198 43 -40 162 -102 212 -111 20 -3 6 5
-33 20 -77 28 -170 87 -198 127 -40 56 -18 52 65 -11 178 -134 427 -127 604
18 44 36 61 38 43 4 -18 -33 -91 -88 -161 -121 -36 -17 -59 -31 -53 -31 25 0
119 51 174 94 63 49 138 155 164 231 26 74 31 207 11 282 -27 108 -95 216
-171 274 -20 15 -14 6 18 -29 41 -44 60 -82 41 -82 -3 0 -29 19 -57 43 -46 37
-86 62 -149 89 -32 14 -19 0 26 -26 42 -25 86 -69 86 -87 0 -4 -15 -11 -33
-14 -19 -4 -47 -17 -63 -30 -27 -22 -28 -24 -13 -42 16 -18 49 -77 49 -88 0
-14 -49 -3 -65 15 -10 11 -32 28 -50 39 l-33 19 -5 -42 c-3 -22 -2 -45 3 -50
5 -4 54 -7 109 -4 l101 4 0 -66 0 -65 -111 3 -111 4 4 -131 3 -131 -65 0 -65
0 0 127 0 128 -113 0 -113 -1 3 71 c2 57 6 69 18 65 8 -2 57 -6 108 -8 l92 -3
0 45 c0 25 -4 46 -9 46 -5 0 -30 -16 -55 -35 -42 -32 -86 -46 -86 -27 0 4 11
27 25 50 25 44 25 62 1 62 -7 0 -25 9 -40 21 -15 11 -34 18 -42 15 -9 -3 -20
-4 -24 -1 -12 7 28 73 51 86 11 5 19 14 19 19 0 13 -56 -18 -108 -59 -35 -27
-42 -30 -42 -15 0 10 21 40 48 68 26 27 41 45 33 41 -11 -6 -13 -4 -8 8 8 21
3 22 -13 2z"/>
</g>
</svg>
