<?xml version="1.0" standalone="no"?>
<!DOCTYPE svg PUBLIC "-//W3C//DTD SVG 20010904//EN"
 "http://www.w3.org/TR/2001/REC-SVG-20010904/DTD/svg10.dtd">
<svg version="1.0" xmlns="http://www.w3.org/2000/svg"
 width="102.000000pt" height="108.000000pt" viewBox="0 0 102.000000 108.000000"
 preserveAspectRatio="xMidYMid meet">
<metadata>
Created by potrace 1.16, written by Peter Selinger 2001-2019
</metadata>
<g transform="translate(0.000000,108.000000) scale(0.100000,-0.100000)"
 stroke="none">
<path d="M422 979 c-63 -11 -162 -54 -222 -98 -40 -29 -45 -30 -49 -15 -2 11
9 29 30 46 18 15 30 30 27 33 -11 11 -116 -106 -146 -163 -56 -107 -75 -232
-51 -344 28 -131 119 -264 219 -323 8 -5 -6 12 -33 38 -68 67 -63 93 8 37 173
-137 416 -141 600 -9 25 18 48 30 51 27 21 -21 -69 -93 -166 -134 -30 -13 -49
-23 -41 -24 38 -1 150 68 213 130 198 198 206 508 17 701 -30 30 -39 38 -20
18 21 -24 31 -44 28 -53 -5 -14 -15 -10 -57 21 -28 21 -63 46 -78 55 -39 25
-141 58 -176 57 -25 0 -19 -4 27 -17 51 -15 176 -97 164 -108 -2 -2 -25 8 -51
22 -34 19 -54 24 -74 19 -15 -3 -35 -7 -44 -8 -10 -1 -18 -4 -18 -8 0 -4 -8
-9 -17 -11 -14 -3 -10 -11 21 -46 47 -52 148 -102 205 -102 41 0 50 -7 30 -27
-6 -6 -19 -37 -29 -69 -16 -53 -21 -59 -51 -66 -33 -6 -79 -48 -79 -71 0 -7 9
-30 20 -52 11 -22 20 -42 20 -46 0 -8 -189 -179 -198 -179 -9 0 -195 169 -200
182 -2 4 6 20 17 34 40 50 16 116 -47 130 -48 10 -52 13 -52 36 0 13 -9 43
-20 67 -11 24 -20 47 -20 52 0 5 17 9 39 9 53 0 171 61 205 105 17 22 22 35
14 35 -8 1 -7 5 5 14 16 12 15 14 -8 14 -13 0 -22 -4 -19 -9 2 -4 -8 -2 -23 6
-33 17 -47 19 -38 5 3 -5 0 -7 -9 -4 -15 6 -69 -18 -98 -44 -34 -29 -18 -2 19
33 66 62 146 94 242 97 17 1 31 5 31 10 0 10 -47 9 -118 -3z"/>
<path d="M476 771 c-33 -34 -104 -74 -163 -92 -40 -11 -43 -15 -43 -46 0 -22
5 -33 15 -33 25 0 82 -58 89 -91 3 -18 1 -49 -4 -71 -11 -38 -11 -39 52 -108
35 -38 70 -70 78 -70 8 0 45 33 82 73 48 54 64 77 57 88 -5 8 -9 35 -9 60 0
54 23 90 70 109 17 7 31 21 32 31 0 11 1 24 2 30 1 6 -27 21 -60 34 -72 27
-137 66 -156 94 -14 20 -15 20 -42 -8z m78 -57 c26 -19 67 -44 91 -55 25 -11
45 -24 45 -28 0 -5 -15 -18 -34 -29 -48 -28 -68 -71 -65 -138 3 -52 1 -56 -41
-99 l-43 -44 -49 42 c-48 41 -49 43 -43 84 8 56 -22 127 -64 151 -43 24 -39
44 14 65 25 11 64 34 87 52 24 19 46 34 49 34 3 1 27 -15 53 -35z"/>
</g>
</svg>
